# xmcd CD database file
#
# Track frame offsets:
#	150
#	15682
#	32870
#	51480
#	84090
#	100497
#	117482
#	140030
#	160927
#	171122
#	183910
#	218500
#	240067
#	264892
#
# Disc length: 3926 seconds
#
# Revision: 2
# Processed by: cddbd v1.5.2PL0 Copyright (c) Steve Scherf et al.
# Submitted via: CDex 1.51
#
DISCID=b30f540e
DTITLE=Tryo - Mamagubida
DYEAR=1998
DGENRE=Reggae
TTITLE0=L'hymne De Nos Campagnes
TTITLE1=Pour Un Flirt Avec La Crise
TTITLE2=C'est Du Roots
TTITLE3=Salut Ô
TTITLE4=La Révolution
TTITLE5=Regardez-Les
TTITLE6=La Misère D'en Face
TTITLE7=Un Homme Qui Aime Les Femmes
TTITLE8=La Main Verte
TTITLE9=France Telecom
TTITLE10=Yakamonéyé
TTITLE11=Les Soldats De Plomb
TTITLE12=Suprématie
TTITLE13=Babylone
EXTD=YEAR: 1998
EXTT0=
EXTT1=
EXTT2=
EXTT3=
EXTT4=
EXTT5=
EXTT6=
EXTT7=
EXTT8=
EXTT9=
EXTT10=
EXTT11=
EXTT12=
EXTT13=
PLAYORDER=
